M48
; DRILL file {KiCad 7.0.5-4d25ed1034~172~ubuntu20.04.1} date Wed May 31 02:11:29 2023
; FORMAT={-:-/ absolute / metric / decimal}
; #@! TF.CreationDate,2023-05-31T02:11:29+03:00
; #@! TF.GenerationSoftware,Kicad,Pcbnew,7.0.5-4d25ed1034~172~ubuntu20.04.1
; #@! TF.FileFunction,MixedPlating,1,2
FMAT,2
METRIC
; #@! TA.AperFunction,Plated,PTH,ViaDrill
T1C0.400
; #@! TA.AperFunction,Plated,PTH,ComponentDrill
T2C1.000
; #@! TA.AperFunction,Plated,PTH,ComponentDrill
T3C1.200
; #@! TA.AperFunction,NonPlated,NPTH,ComponentDrill
T4C3.500
%
G90
G05
T1
X87.75Y-102.537
X91.3Y-102.387
X93.0Y-164.0
X95.0Y-155.0
X95.5Y-129.0
X95.5Y-133.5
X95.5Y-139.5
X95.7Y-102.637
X97.2Y-126.25
X97.9Y-147.3
X97.95Y-144.8
X98.0Y-149.9
X98.0Y-152.5
X98.2Y-122.2
X98.3Y-119.6
X98.5Y-117.2
X98.5Y-139.2
X98.5Y-153.75
X99.2Y-147.5
X99.35Y-144.5
X99.6Y-102.438
X99.7Y-137.0
X100.1Y-153.35
X100.95Y-139.25
X102.05Y-142.85
X102.15Y-136.95
X102.3Y-152.9
X102.5Y-116.0
X103.55Y-139.15
X103.75Y-152.25
X105.0Y-130.5
X105.75Y-102.587
X106.0Y-114.0
X106.05Y-139.1
X107.45Y-136.05
X108.3Y-137.7
X109.05Y-132.55
X109.25Y-102.537
X109.3Y-128.55
X109.55Y-122.7
X111.099Y-133.6
X111.5Y-137.5
X111.5Y-144.0
X111.5Y-151.5
X112.0Y-111.8
X112.05Y-122.6
X112.95Y-128.65
X113.65Y-102.487
X114.25Y-137.5
X114.25Y-151.25
X114.7Y-133.5
X115.0Y-122.6
X116.6Y-128.6
X117.0Y-139.0
X117.0Y-150.0
X117.25Y-102.487
X118.05Y-122.45
X118.3Y-137.05
X120.0Y-139.0
X120.0Y-148.0
X120.5Y-131.25
X120.65Y-128.8
X121.0Y-122.7
X122.25Y-125.5
X123.25Y-134.75
X123.4Y-112.1
X123.75Y-102.35
X124.0Y-117.4
X124.2Y-136.45
X124.75Y-138.5
X124.75Y-144.5
X125.25Y-125.5
X125.25Y-131.0
X125.25Y-156.75
X127.5Y-102.35
X127.5Y-154.0
X128.15Y-122.65
X128.5Y-142.25
X128.75Y-135.0
X129.1Y-128.15
X130.6Y-132.9
X131.0Y-122.65
X131.0Y-152.0
X131.6Y-102.412
X132.8Y-128.1
X133.0Y-111.8
X133.75Y-136.75
X133.95Y-122.7
X134.35Y-133.4
X134.5Y-157.7
X135.2Y-102.212
X135.4Y-153.2
X135.6Y-156.6
X136.4Y-128.15
X136.9Y-137.1
X137.0Y-122.55
X139.4Y-164.1
X139.5Y-152.25
X140.2Y-128.0
X140.75Y-146.85
X140.9Y-151.5
X141.0Y-148.95
X141.1Y-131.6
X141.625Y-102.2
X141.7Y-156.7
X141.9Y-123.0
X142.25Y-148.25
X142.5Y-152.25
X142.7Y-155.9
X143.5Y-150.6
X143.65Y-146.1
X143.8Y-130.3
X144.0Y-142.75
X145.125Y-102.2
X145.25Y-141.25
X145.5Y-144.3
X146.0Y-116.0
X146.1Y-124.3
X146.5Y-151.5
X147.3Y-140.2
X147.7Y-127.95
X147.7Y-146.9
X147.95Y-151.05
X148.0Y-158.7
X148.0Y-160.5
X148.05Y-148.8
X148.75Y-141.25
X148.9Y-150.1
X149.15Y-101.95
X149.15Y-125.6
X149.25Y-147.5
X149.4Y-136.0
X149.4Y-139.6
X150.2Y-113.1
X150.5Y-141.5
X151.1Y-154.5
X151.75Y-129.9
X152.0Y-151.0
X152.05Y-146.4
X152.9Y-141.9
X152.95Y-101.95
X153.0Y-159.0
X153.3Y-127.65
X153.4Y-117.3
X153.5Y-153.7
X153.6Y-152.2
X153.7Y-155.8
X154.2Y-123.3
X154.4Y-147.4
X154.45Y-125.4
X154.5Y-130.6
X154.65Y-164.4
X154.9Y-140.1
X155.95Y-151.05
X155.95Y-156.5
X156.25Y-159.0
X157.0Y-114.0
X157.0Y-134.0
X158.5Y-136.0
X162.3Y-154.8
X164.5Y-134.25
T2
X97.0Y-159.213
X97.0Y-161.752
X99.54Y-159.213
X99.54Y-161.752
X102.08Y-159.213
X102.08Y-161.752
X104.62Y-159.213
X104.62Y-161.752
X107.16Y-159.213
X107.16Y-161.752
X109.7Y-159.213
X109.7Y-161.752
X112.24Y-159.213
X112.24Y-161.752
X114.78Y-159.213
X114.78Y-161.752
X117.32Y-159.213
X117.32Y-161.752
X119.86Y-159.213
X119.86Y-161.752
X122.4Y-159.213
X122.4Y-161.752
X124.94Y-159.213
X124.94Y-161.752
X127.48Y-159.213
X127.48Y-161.752
X130.02Y-159.213
X130.02Y-161.752
X132.56Y-159.213
X132.56Y-161.752
X135.1Y-159.213
X135.1Y-161.752
X137.64Y-159.213
X137.64Y-161.752
X140.18Y-159.213
X140.18Y-161.752
X142.72Y-159.213
X142.72Y-161.752
X145.26Y-159.213
X145.26Y-161.752
X161.0Y-117.38
X161.0Y-119.92
X161.0Y-122.46
X161.0Y-125.0
X161.0Y-127.54
X161.0Y-130.08
X161.0Y-137.92
X161.0Y-140.46
X161.0Y-143.0
X161.0Y-145.54
X161.0Y-148.08
X161.0Y-150.62
T3
X82.382Y-108.0
X82.382Y-111.5
X82.382Y-115.0
X82.382Y-118.5
X82.382Y-122.0
X82.382Y-135.055
X82.382Y-138.555
X82.382Y-142.055
X82.382Y-145.555
X82.382Y-149.055
X88.695Y-92.932
X92.195Y-92.932
X95.695Y-92.932
X99.195Y-92.932
X106.695Y-92.932
X110.195Y-92.932
X113.695Y-92.932
X117.195Y-92.932
X124.695Y-92.932
X128.195Y-92.932
X131.695Y-92.932
X135.195Y-92.932
X142.695Y-92.932
X146.195Y-92.932
X149.695Y-92.932
X153.195Y-92.932
T4
X80.0Y-90.0
X80.0Y-162.0
X162.0Y-90.0
X162.0Y-162.0
T0
M30
