G04 #@! TF.GenerationSoftware,KiCad,Pcbnew,7.0.5-4d25ed1034~172~ubuntu20.04.1*
G04 #@! TF.CreationDate,2023-05-31T02:11:29+03:00*
G04 #@! TF.ProjectId,kanalog-jp12-breakout,6b616e61-6c6f-4672-9d6a-7031322d6272,rev?*
G04 #@! TF.SameCoordinates,Original*
G04 #@! TF.FileFunction,Paste,Top*
G04 #@! TF.FilePolarity,Positive*
%FSLAX46Y46*%
G04 Gerber Fmt 4.6, Leading zero omitted, Abs format (unit mm)*
G04 Created by KiCad (PCBNEW 7.0.5-4d25ed1034~172~ubuntu20.04.1) date 2023-05-31 02:11:29*
%MOMM*%
%LPD*%
G01*
G04 APERTURE LIST*
G04 Aperture macros list*
%AMRoundRect*
0 Rectangle with rounded corners*
0 $1 Rounding radius*
0 $2 $3 $4 $5 $6 $7 $8 $9 X,Y pos of 4 corners*
0 Add a 4 corners polygon primitive as box body*
4,1,4,$2,$3,$4,$5,$6,$7,$8,$9,$2,$3,0*
0 Add four circle primitives for the rounded corners*
1,1,$1+$1,$2,$3*
1,1,$1+$1,$4,$5*
1,1,$1+$1,$6,$7*
1,1,$1+$1,$8,$9*
0 Add four rect primitives between the rounded corners*
20,1,$1+$1,$2,$3,$4,$5,0*
20,1,$1+$1,$4,$5,$6,$7,0*
20,1,$1+$1,$6,$7,$8,$9,0*
20,1,$1+$1,$8,$9,$2,$3,0*%
G04 Aperture macros list end*
%ADD10RoundRect,0.150000X0.150000X-0.587500X0.150000X0.587500X-0.150000X0.587500X-0.150000X-0.587500X0*%
%ADD11RoundRect,0.218750X-0.256250X0.218750X-0.256250X-0.218750X0.256250X-0.218750X0.256250X0.218750X0*%
%ADD12RoundRect,0.200000X0.275000X-0.200000X0.275000X0.200000X-0.275000X0.200000X-0.275000X-0.200000X0*%
%ADD13RoundRect,0.200000X-0.275000X0.200000X-0.275000X-0.200000X0.275000X-0.200000X0.275000X0.200000X0*%
%ADD14RoundRect,0.150000X-0.512500X-0.150000X0.512500X-0.150000X0.512500X0.150000X-0.512500X0.150000X0*%
%ADD15RoundRect,0.250000X-0.250000X-0.475000X0.250000X-0.475000X0.250000X0.475000X-0.250000X0.475000X0*%
%ADD16RoundRect,0.150000X-0.150000X0.512500X-0.150000X-0.512500X0.150000X-0.512500X0.150000X0.512500X0*%
%ADD17R,1.500000X0.600000*%
%ADD18RoundRect,0.200000X0.200000X0.275000X-0.200000X0.275000X-0.200000X-0.275000X0.200000X-0.275000X0*%
%ADD19RoundRect,0.218750X0.218750X0.256250X-0.218750X0.256250X-0.218750X-0.256250X0.218750X-0.256250X0*%
%ADD20R,0.600000X1.500000*%
%ADD21RoundRect,0.200000X-0.200000X-0.275000X0.200000X-0.275000X0.200000X0.275000X-0.200000X0.275000X0*%
%ADD22RoundRect,0.150000X0.200000X-0.150000X0.200000X0.150000X-0.200000X0.150000X-0.200000X-0.150000X0*%
%ADD23RoundRect,0.225000X-0.225000X-0.250000X0.225000X-0.250000X0.225000X0.250000X-0.225000X0.250000X0*%
%ADD24RoundRect,0.218750X-0.218750X-0.256250X0.218750X-0.256250X0.218750X0.256250X-0.218750X0.256250X0*%
G04 APERTURE END LIST*
D10*
G04 #@! TO.C,Q3*
X105650000Y-101175000D03*
X107550000Y-101175000D03*
X106600000Y-99300000D03*
G04 #@! TD*
G04 #@! TO.C,Q7*
X114550000Y-126712500D03*
X116450000Y-126712500D03*
X115500000Y-124837500D03*
G04 #@! TD*
G04 #@! TO.C,Q2*
X95700000Y-101175000D03*
X97600000Y-101175000D03*
X96650000Y-99300000D03*
G04 #@! TD*
D11*
G04 #@! TO.C,D17*
X109300000Y-116212500D03*
X109300000Y-117787500D03*
G04 #@! TD*
D12*
G04 #@! TO.C,R16*
X98490000Y-138000000D03*
X98490000Y-136350000D03*
G04 #@! TD*
D13*
G04 #@! TO.C,R18*
X99550000Y-99612500D03*
X99550000Y-101262500D03*
G04 #@! TD*
G04 #@! TO.C,R10*
X91490000Y-110000000D03*
X91490000Y-111650000D03*
G04 #@! TD*
D12*
G04 #@! TO.C,R23*
X112000000Y-121300000D03*
X112000000Y-119650000D03*
G04 #@! TD*
D14*
G04 #@! TO.C,U5*
X150687500Y-124590000D03*
X150687500Y-125540000D03*
X150687500Y-126490000D03*
X152962500Y-126490000D03*
X152962500Y-125540000D03*
X152962500Y-124590000D03*
G04 #@! TD*
D10*
G04 #@! TO.C,Q16*
X131500000Y-100900000D03*
X133400000Y-100900000D03*
X132450000Y-99025000D03*
G04 #@! TD*
D12*
G04 #@! TO.C,R28*
X118500000Y-131000000D03*
X118500000Y-129350000D03*
G04 #@! TD*
D11*
G04 #@! TO.C,D19*
X115000000Y-116212500D03*
X115000000Y-117787500D03*
G04 #@! TD*
D12*
G04 #@! TO.C,R35*
X131000000Y-121300000D03*
X131000000Y-119650000D03*
G04 #@! TD*
G04 #@! TO.C,R22*
X107515000Y-131000000D03*
X107515000Y-129350000D03*
G04 #@! TD*
D10*
G04 #@! TO.C,Q14*
X149250000Y-100675000D03*
X151150000Y-100675000D03*
X150200000Y-98800000D03*
G04 #@! TD*
G04 #@! TO.C,Q8*
X118550000Y-126712500D03*
X120450000Y-126712500D03*
X119500000Y-124837500D03*
G04 #@! TD*
D15*
G04 #@! TO.C,C1*
X137987500Y-148900000D03*
X139887500Y-148900000D03*
G04 #@! TD*
D12*
G04 #@! TO.C,R29*
X134000000Y-121300000D03*
X134000000Y-119650000D03*
G04 #@! TD*
G04 #@! TO.C,R25*
X115000000Y-121300000D03*
X115000000Y-119650000D03*
G04 #@! TD*
D13*
G04 #@! TO.C,R37*
X145125000Y-99375000D03*
X145125000Y-101025000D03*
G04 #@! TD*
D16*
G04 #@! TO.C,U6*
X156900000Y-152512500D03*
X155950000Y-152512500D03*
X155000000Y-152512500D03*
X155000000Y-154787500D03*
X155950000Y-154787500D03*
X156900000Y-154787500D03*
G04 #@! TD*
D12*
G04 #@! TO.C,R14*
X103510000Y-138000000D03*
X103510000Y-136350000D03*
G04 #@! TD*
D17*
G04 #@! TO.C,U2*
X89450000Y-115555000D03*
X89450000Y-116825000D03*
X89450000Y-118095000D03*
X89450000Y-119365000D03*
X89450000Y-120635000D03*
X89450000Y-121905000D03*
X89450000Y-123175000D03*
X89450000Y-124445000D03*
X96550000Y-124445000D03*
X96550000Y-123175000D03*
X96550000Y-121905000D03*
X96550000Y-120635000D03*
X96550000Y-119365000D03*
X96550000Y-118095000D03*
X96550000Y-116825000D03*
X96550000Y-115555000D03*
G04 #@! TD*
D12*
G04 #@! TO.C,R31*
X137000000Y-121300000D03*
X137000000Y-119650000D03*
G04 #@! TD*
D18*
G04 #@! TO.C,R42*
X157650000Y-122540000D03*
X156000000Y-122540000D03*
G04 #@! TD*
G04 #@! TO.C,R7*
X102275000Y-149000000D03*
X100625000Y-149000000D03*
G04 #@! TD*
D10*
G04 #@! TO.C,Q6*
X111050000Y-126712500D03*
X112950000Y-126712500D03*
X112000000Y-124837500D03*
G04 #@! TD*
D13*
G04 #@! TO.C,R19*
X109200000Y-99712500D03*
X109200000Y-101362500D03*
G04 #@! TD*
D12*
G04 #@! TO.C,R15*
X101000000Y-138000000D03*
X101000000Y-136350000D03*
G04 #@! TD*
D13*
G04 #@! TO.C,R11*
X94000000Y-110000000D03*
X94000000Y-111650000D03*
G04 #@! TD*
D18*
G04 #@! TO.C,R6*
X102275000Y-146490000D03*
X100625000Y-146490000D03*
G04 #@! TD*
G04 #@! TO.C,R5*
X102275000Y-143980000D03*
X100625000Y-143980000D03*
G04 #@! TD*
D13*
G04 #@! TO.C,R20*
X117200000Y-99762500D03*
X117200000Y-101412500D03*
G04 #@! TD*
D18*
G04 #@! TO.C,R47*
X157825000Y-148450000D03*
X156175000Y-148450000D03*
G04 #@! TD*
D11*
G04 #@! TO.C,D21*
X134000000Y-116212500D03*
X134000000Y-117787500D03*
G04 #@! TD*
D19*
G04 #@! TO.C,FB3*
X157787500Y-138000000D03*
X156212500Y-138000000D03*
G04 #@! TD*
D18*
G04 #@! TO.C,R43*
X157650000Y-125540000D03*
X156000000Y-125540000D03*
G04 #@! TD*
D20*
G04 #@! TO.C,U3*
X109570000Y-113850000D03*
X110840000Y-113850000D03*
X112110000Y-113850000D03*
X113380000Y-113850000D03*
X114650000Y-113850000D03*
X115920000Y-113850000D03*
X117190000Y-113850000D03*
X118460000Y-113850000D03*
X118460000Y-106750000D03*
X117190000Y-106750000D03*
X115920000Y-106750000D03*
X114650000Y-106750000D03*
X113380000Y-106750000D03*
X112110000Y-106750000D03*
X110840000Y-106750000D03*
X109570000Y-106750000D03*
G04 #@! TD*
D12*
G04 #@! TO.C,R32*
X138000000Y-131000000D03*
X138000000Y-129350000D03*
G04 #@! TD*
D18*
G04 #@! TO.C,R46*
X157825000Y-145000000D03*
X156175000Y-145000000D03*
G04 #@! TD*
D21*
G04 #@! TO.C,R48*
X138975000Y-144860000D03*
X140625000Y-144860000D03*
G04 #@! TD*
D11*
G04 #@! TO.C,D20*
X118000000Y-116212500D03*
X118000000Y-117787500D03*
G04 #@! TD*
D22*
G04 #@! TO.C,D25*
X140937500Y-152500000D03*
X140937500Y-153900000D03*
G04 #@! TD*
D13*
G04 #@! TO.C,R2*
X87900000Y-135175000D03*
X87900000Y-136825000D03*
G04 #@! TD*
D12*
G04 #@! TO.C,R26*
X114515000Y-131000000D03*
X114515000Y-129350000D03*
G04 #@! TD*
D10*
G04 #@! TO.C,Q11*
X127050000Y-126712500D03*
X128950000Y-126712500D03*
X128000000Y-124837500D03*
G04 #@! TD*
D11*
G04 #@! TO.C,FB1*
X137937500Y-152112500D03*
X137937500Y-153687500D03*
G04 #@! TD*
G04 #@! TO.C,D22*
X137000000Y-116212500D03*
X137000000Y-117787500D03*
G04 #@! TD*
D18*
G04 #@! TO.C,R8*
X102275000Y-151510000D03*
X100625000Y-151510000D03*
G04 #@! TD*
D12*
G04 #@! TO.C,R27*
X118000000Y-121300000D03*
X118000000Y-119650000D03*
G04 #@! TD*
D18*
G04 #@! TO.C,R41*
X157650000Y-119540000D03*
X156000000Y-119540000D03*
G04 #@! TD*
D12*
G04 #@! TO.C,R24*
X111015000Y-131000000D03*
X111015000Y-129350000D03*
G04 #@! TD*
D13*
G04 #@! TO.C,R39*
X127400000Y-99500000D03*
X127400000Y-101150000D03*
G04 #@! TD*
D11*
G04 #@! TO.C,D24*
X131000000Y-116212500D03*
X131000000Y-117787500D03*
G04 #@! TD*
D19*
G04 #@! TO.C,D27*
X151725000Y-144900000D03*
X150150000Y-144900000D03*
G04 #@! TD*
D11*
G04 #@! TO.C,D18*
X112000000Y-116212500D03*
X112000000Y-117787500D03*
G04 #@! TD*
G04 #@! TO.C,FB2*
X144937500Y-152112500D03*
X144937500Y-153687500D03*
G04 #@! TD*
D12*
G04 #@! TO.C,R13*
X106020000Y-138000000D03*
X106020000Y-136350000D03*
G04 #@! TD*
D13*
G04 #@! TO.C,R38*
X152950000Y-99225000D03*
X152950000Y-100875000D03*
G04 #@! TD*
D11*
G04 #@! TO.C,D23*
X128000000Y-116212500D03*
X128000000Y-117787500D03*
G04 #@! TD*
D13*
G04 #@! TO.C,R40*
X135100000Y-99387500D03*
X135100000Y-101037500D03*
G04 #@! TD*
D10*
G04 #@! TO.C,Q10*
X138050000Y-126712500D03*
X139950000Y-126712500D03*
X139000000Y-124837500D03*
G04 #@! TD*
D13*
G04 #@! TO.C,R17*
X91300000Y-99562500D03*
X91300000Y-101212500D03*
G04 #@! TD*
D12*
G04 #@! TO.C,R33*
X128000000Y-121300000D03*
X128000000Y-119650000D03*
G04 #@! TD*
D10*
G04 #@! TO.C,Q4*
X113550000Y-101175000D03*
X115450000Y-101175000D03*
X114500000Y-99300000D03*
G04 #@! TD*
D12*
G04 #@! TO.C,R36*
X130800000Y-131000000D03*
X130800000Y-129350000D03*
G04 #@! TD*
D13*
G04 #@! TO.C,R1*
X86300000Y-135175000D03*
X86300000Y-136825000D03*
G04 #@! TD*
D19*
G04 #@! TO.C,D28*
X143725000Y-144900000D03*
X142150000Y-144900000D03*
G04 #@! TD*
D10*
G04 #@! TO.C,Q1*
X87700000Y-101175000D03*
X89600000Y-101175000D03*
X88650000Y-99300000D03*
G04 #@! TD*
D12*
G04 #@! TO.C,R21*
X109300000Y-121300000D03*
X109300000Y-119650000D03*
G04 #@! TD*
D22*
G04 #@! TO.C,D26*
X147937500Y-152200000D03*
X147937500Y-153600000D03*
G04 #@! TD*
D13*
G04 #@! TO.C,R9*
X88980000Y-110000000D03*
X88980000Y-111650000D03*
G04 #@! TD*
G04 #@! TO.C,R3*
X89500000Y-135175000D03*
X89500000Y-136825000D03*
G04 #@! TD*
D18*
G04 #@! TO.C,R44*
X157650000Y-128540000D03*
X156000000Y-128540000D03*
G04 #@! TD*
D12*
G04 #@! TO.C,R34*
X127000000Y-131000000D03*
X127000000Y-129350000D03*
G04 #@! TD*
D10*
G04 #@! TO.C,Q12*
X130850000Y-126712500D03*
X132750000Y-126712500D03*
X131800000Y-124837500D03*
G04 #@! TD*
G04 #@! TO.C,Q9*
X134500000Y-126712500D03*
X136400000Y-126712500D03*
X135450000Y-124837500D03*
G04 #@! TD*
D15*
G04 #@! TO.C,C3*
X144987500Y-148900000D03*
X146887500Y-148900000D03*
G04 #@! TD*
D23*
G04 #@! TO.C,C2*
X138162500Y-146900000D03*
X139712500Y-146900000D03*
G04 #@! TD*
D17*
G04 #@! TO.C,U1*
X89450000Y-143555000D03*
X89450000Y-144825000D03*
X89450000Y-146095000D03*
X89450000Y-147365000D03*
X89450000Y-148635000D03*
X89450000Y-149905000D03*
X89450000Y-151175000D03*
X89450000Y-152445000D03*
X96550000Y-152445000D03*
X96550000Y-151175000D03*
X96550000Y-149905000D03*
X96550000Y-148635000D03*
X96550000Y-147365000D03*
X96550000Y-146095000D03*
X96550000Y-144825000D03*
X96550000Y-143555000D03*
G04 #@! TD*
D23*
G04 #@! TO.C,C4*
X145162500Y-146900000D03*
X146712500Y-146900000D03*
G04 #@! TD*
D12*
G04 #@! TO.C,R30*
X134450000Y-131000000D03*
X134450000Y-129350000D03*
G04 #@! TD*
D10*
G04 #@! TO.C,Q13*
X141575000Y-100800000D03*
X143475000Y-100800000D03*
X142525000Y-98925000D03*
G04 #@! TD*
D24*
G04 #@! TO.C,FB4*
X156212500Y-141000000D03*
X157787500Y-141000000D03*
G04 #@! TD*
D10*
G04 #@! TO.C,Q5*
X107350000Y-126712500D03*
X109250000Y-126712500D03*
X108300000Y-124837500D03*
G04 #@! TD*
G04 #@! TO.C,Q15*
X123800000Y-100900000D03*
X125700000Y-100900000D03*
X124750000Y-99025000D03*
G04 #@! TD*
D13*
G04 #@! TO.C,R4*
X91100000Y-135175000D03*
X91100000Y-136825000D03*
G04 #@! TD*
G04 #@! TO.C,R12*
X96510000Y-110000000D03*
X96510000Y-111650000D03*
G04 #@! TD*
D20*
G04 #@! TO.C,U4*
X128355000Y-113750000D03*
X129625000Y-113750000D03*
X130895000Y-113750000D03*
X132165000Y-113750000D03*
X133435000Y-113750000D03*
X134705000Y-113750000D03*
X135975000Y-113750000D03*
X137245000Y-113750000D03*
X137245000Y-106650000D03*
X135975000Y-106650000D03*
X134705000Y-106650000D03*
X133435000Y-106650000D03*
X132165000Y-106650000D03*
X130895000Y-106650000D03*
X129625000Y-106650000D03*
X128355000Y-106650000D03*
G04 #@! TD*
D21*
G04 #@! TO.C,R45*
X146112500Y-144860000D03*
X147762500Y-144860000D03*
G04 #@! TD*
M02*
